Coordinates
version=1
nRows=21
nColumns=12
inDegrees=yes

Units are S.I. units (second, meters, Newtons, ...)
Angles are in degrees

endheader
time	SC_y	SC_z	SC_x	AC_y	AC_z	AC_x	GH_y	GH_z	GH_yy	EL_x	PS_y
       0.0              -45.62         -4.766          38.84          60.79         -2.001         -19.47         -45.51          19.35         -107.9          78.82          63.36
   0.03416              -45.62          -4.76          38.84          60.79           -2.0         -19.47          -45.5          19.35         -107.9          78.82          63.37
   0.06832              -45.62         -4.754          38.85          60.79         -1.999         -19.47         -45.49          19.35         -107.9          78.82          63.38
    0.1025              -45.62         -4.748          38.86          60.79         -1.998         -19.47         -45.48          19.35         -107.9          78.82          63.39
    0.1366              -45.62         -4.741          38.86          60.79         -1.997         -19.47         -45.47          19.35         -107.9          78.82           63.4
    0.1708              -45.63         -4.733          38.87          60.79         -1.996         -19.47         -45.46          19.35         -107.8          78.82          63.41
     0.205              -45.63         -4.725          38.88          60.79         -1.994         -19.46         -45.44          19.34         -107.8          78.82          63.42
    0.2391              -45.63         -4.717          38.89           60.8         -1.993         -19.46         -45.43          19.34         -107.8          78.82          63.43
    0.2733              -45.63         -4.708           38.9           60.8         -1.991         -19.46         -45.41          19.34         -107.8          78.82          63.44
    0.3074              -45.63         -4.698          38.91           60.8          -1.99         -19.46          -45.4          19.34         -107.8          78.82          63.46
    0.3416              -45.63         -4.688          38.92           60.8         -1.988         -19.46         -45.38          19.34         -107.7          78.83          63.47
    0.3758              -45.63         -4.677          38.93           60.8         -1.986         -19.46         -45.36          19.34         -107.7          78.83          63.49
    0.4099              -45.64         -4.665          38.95          60.81         -1.984         -19.46         -45.34          19.34         -107.7          78.83          63.51
    0.4441              -45.64         -4.652          38.96          60.81         -1.982         -19.46         -45.32          19.34         -107.7          78.83          63.52
    0.4782              -45.64         -4.638          38.97          60.81          -1.98         -19.46         -45.29          19.33         -107.6          78.83          63.54
    0.5124              -45.64         -4.622          38.99          60.81         -1.977         -19.46         -45.27          19.33         -107.6          78.83          63.57
    0.5465              -45.64         -4.606          39.01          60.82         -1.974         -19.45         -45.24          19.33         -107.5          78.83          63.59
    0.5807              -45.65         -4.588          39.03          60.82         -1.971         -19.45         -45.21          19.33         -107.5          78.83          63.62
    0.6149              -45.65         -4.568          39.05          60.83         -1.968         -19.45         -45.18          19.33         -107.5          78.84          63.64
     0.649              -45.65         -4.546          39.07          60.83         -1.964         -19.45         -45.14          19.32         -107.4          78.84          63.67
    0.6832              -45.66         -4.522           39.1          60.83          -1.96         -19.45          -45.1          19.32         -107.4          78.84          63.71
